P3
2 1
15
5
5
5
0
0
0
